# xmcd
# 
# Track frame offsets:
#     150
#     17487
#     48997
#     73052
#     99070
#     118290
#     130690
#     158395
# 
# Disc length: 2540
# 
# Revision: 1
# Processed by: cddbd v1.5.2PL0 Copyright (c) Steve Scherf et al.
# Submitted via: fre:ac v1.0.31
# 
DISCID=5909ea08
DTITLE=Taj Mahal - Happy Just To Be Like I Am
DYEAR=1971
DGENRE=Blues
TTITLE0=Happy Just To Be Like I Am
TTITLE1=Stealin'
TTITLE2=Oh Susanna
TTITLE3=Eighteen Hammers
TTITLE4=Tomorrow May Not Be Your Day
TTITLE5=Chevrolet
TTITLE6=West Indian Revelation
TTITLE7=Black Spirit Boogie
EXTD=YEAR: 1971
EXTT0=
EXTT1=
EXTT2=
EXTT3=
EXTT4=
EXTT5=
EXTT6=
EXTT7=
PLAYORDER=
